<mxfile host="Electron" agent="Mozilla/5.0 (Windows NT 10.0; Win64; x64) AppleWebKit/537.36 (KHTML, like Gecko) draw.io/24.7.8 Chrome/128.0.6613.36 Electron/32.0.1 Safari/537.36" version="24.7.8">
  <diagram name="Page-1" id="zEuR2ata6NyK0iJPSnlo">
    <mxGraphModel dx="1105" dy="654" grid="1" gridSize="10" guides="1" tooltips="1" connect="1" arrows="1" fold="1" page="1" pageScale="1" pageWidth="850" pageHeight="1100" math="0" shadow="0">
      <root>
        <mxCell id="0" />
        <mxCell id="1" parent="0" />
        <mxCell id="K1ZRSHbWOJf6z0FxV2P3-123" value="User" style="swimlane;fontStyle=1;align=center;verticalAlign=top;childLayout=stackLayout;horizontal=1;startSize=27.8;horizontalStack=0;resizeParent=1;resizeParentMax=0;resizeLast=0;collapsible=0;marginBottom=0;" parent="1" vertex="1">
          <mxGeometry x="309" y="180" width="178" height="147.8" as="geometry" />
        </mxCell>
        <mxCell id="K1ZRSHbWOJf6z0FxV2P3-124" value="+String voiceCommand" style="text;strokeColor=none;fillColor=none;align=left;verticalAlign=top;spacingLeft=4;spacingRight=4;overflow=hidden;rotatable=0;points=[[0,0.5],[1,0.5]];portConstraint=eastwest;" parent="K1ZRSHbWOJf6z0FxV2P3-123" vertex="1">
          <mxGeometry y="27.8" width="178" height="28" as="geometry" />
        </mxCell>
        <mxCell id="K1ZRSHbWOJf6z0FxV2P3-125" value="+Image faceData" style="text;strokeColor=none;fillColor=none;align=left;verticalAlign=top;spacingLeft=4;spacingRight=4;overflow=hidden;rotatable=0;points=[[0,0.5],[1,0.5]];portConstraint=eastwest;" parent="K1ZRSHbWOJf6z0FxV2P3-123" vertex="1">
          <mxGeometry y="55.8" width="178" height="28" as="geometry" />
        </mxCell>
        <mxCell id="K1ZRSHbWOJf6z0FxV2P3-126" style="line;strokeWidth=1;fillColor=none;align=left;verticalAlign=middle;spacingTop=-1;spacingLeft=3;spacingRight=3;rotatable=0;labelPosition=right;points=[];portConstraint=eastwest;strokeColor=inherit;" parent="K1ZRSHbWOJf6z0FxV2P3-123" vertex="1">
          <mxGeometry y="83.8" width="178" height="8" as="geometry" />
        </mxCell>
        <mxCell id="K1ZRSHbWOJf6z0FxV2P3-127" value="+login()" style="text;strokeColor=none;fillColor=none;align=left;verticalAlign=top;spacingLeft=4;spacingRight=4;overflow=hidden;rotatable=0;points=[[0,0.5],[1,0.5]];portConstraint=eastwest;" parent="K1ZRSHbWOJf6z0FxV2P3-123" vertex="1">
          <mxGeometry y="91.8" width="178" height="28" as="geometry" />
        </mxCell>
        <mxCell id="K1ZRSHbWOJf6z0FxV2P3-128" value="+provideCommand()" style="text;strokeColor=none;fillColor=none;align=left;verticalAlign=top;spacingLeft=4;spacingRight=4;overflow=hidden;rotatable=0;points=[[0,0.5],[1,0.5]];portConstraint=eastwest;" parent="K1ZRSHbWOJf6z0FxV2P3-123" vertex="1">
          <mxGeometry y="119.8" width="178" height="28" as="geometry" />
        </mxCell>
        <mxCell id="K1ZRSHbWOJf6z0FxV2P3-129" value="UserInterface" style="swimlane;fontStyle=1;align=center;verticalAlign=top;childLayout=stackLayout;horizontal=1;startSize=25.272727272727273;horizontalStack=0;resizeParent=1;resizeParentMax=0;resizeLast=0;collapsible=0;marginBottom=0;" parent="1" vertex="1">
          <mxGeometry x="224" y="395" width="201" height="133.27272727272728" as="geometry" />
        </mxCell>
        <mxCell id="K1ZRSHbWOJf6z0FxV2P3-130" style="line;strokeWidth=1;fillColor=none;align=left;verticalAlign=middle;spacingTop=-1;spacingLeft=3;spacingRight=3;rotatable=0;labelPosition=right;points=[];portConstraint=eastwest;strokeColor=inherit;" parent="K1ZRSHbWOJf6z0FxV2P3-129" vertex="1">
          <mxGeometry y="25.272727272727273" width="201" height="8" as="geometry" />
        </mxCell>
        <mxCell id="K1ZRSHbWOJf6z0FxV2P3-131" value="+captureVoiceCommand()" style="text;strokeColor=none;fillColor=none;align=left;verticalAlign=top;spacingLeft=4;spacingRight=4;overflow=hidden;rotatable=0;points=[[0,0.5],[1,0.5]];portConstraint=eastwest;" parent="K1ZRSHbWOJf6z0FxV2P3-129" vertex="1">
          <mxGeometry y="33.27272727272727" width="201" height="25" as="geometry" />
        </mxCell>
        <mxCell id="K1ZRSHbWOJf6z0FxV2P3-132" value="+captureFaceData()" style="text;strokeColor=none;fillColor=none;align=left;verticalAlign=top;spacingLeft=4;spacingRight=4;overflow=hidden;rotatable=0;points=[[0,0.5],[1,0.5]];portConstraint=eastwest;" parent="K1ZRSHbWOJf6z0FxV2P3-129" vertex="1">
          <mxGeometry y="58.27272727272727" width="201" height="25" as="geometry" />
        </mxCell>
        <mxCell id="K1ZRSHbWOJf6z0FxV2P3-133" value="+sendVoiceToSTT()" style="text;strokeColor=none;fillColor=none;align=left;verticalAlign=top;spacingLeft=4;spacingRight=4;overflow=hidden;rotatable=0;points=[[0,0.5],[1,0.5]];portConstraint=eastwest;" parent="K1ZRSHbWOJf6z0FxV2P3-129" vertex="1">
          <mxGeometry y="83.27272727272728" width="201" height="25" as="geometry" />
        </mxCell>
        <mxCell id="K1ZRSHbWOJf6z0FxV2P3-134" value="+sendFaceToRecognition()" style="text;strokeColor=none;fillColor=none;align=left;verticalAlign=top;spacingLeft=4;spacingRight=4;overflow=hidden;rotatable=0;points=[[0,0.5],[1,0.5]];portConstraint=eastwest;" parent="K1ZRSHbWOJf6z0FxV2P3-129" vertex="1">
          <mxGeometry y="108.27272727272728" width="201" height="25" as="geometry" />
        </mxCell>
        <mxCell id="K1ZRSHbWOJf6z0FxV2P3-135" value="FaceRecognition" style="swimlane;fontStyle=1;align=center;verticalAlign=top;childLayout=stackLayout;horizontal=1;startSize=29.149999618530273;horizontalStack=0;resizeParent=1;resizeParentMax=0;resizeLast=0;collapsible=0;marginBottom=0;" parent="1" vertex="1">
          <mxGeometry x="325" y="611" width="138" height="124.14999961853027" as="geometry" />
        </mxCell>
        <mxCell id="K1ZRSHbWOJf6z0FxV2P3-136" value="+Image faceData" style="text;strokeColor=none;fillColor=none;align=left;verticalAlign=top;spacingLeft=4;spacingRight=4;overflow=hidden;rotatable=0;points=[[0,0.5],[1,0.5]];portConstraint=eastwest;" parent="K1ZRSHbWOJf6z0FxV2P3-135" vertex="1">
          <mxGeometry y="29.149999618530273" width="138" height="29" as="geometry" />
        </mxCell>
        <mxCell id="K1ZRSHbWOJf6z0FxV2P3-137" style="line;strokeWidth=1;fillColor=none;align=left;verticalAlign=middle;spacingTop=-1;spacingLeft=3;spacingRight=3;rotatable=0;labelPosition=right;points=[];portConstraint=eastwest;strokeColor=inherit;" parent="K1ZRSHbWOJf6z0FxV2P3-135" vertex="1">
          <mxGeometry y="58.14999961853027" width="138" height="8" as="geometry" />
        </mxCell>
        <mxCell id="K1ZRSHbWOJf6z0FxV2P3-138" value="+validateUser()" style="text;strokeColor=none;fillColor=none;align=left;verticalAlign=top;spacingLeft=4;spacingRight=4;overflow=hidden;rotatable=0;points=[[0,0.5],[1,0.5]];portConstraint=eastwest;" parent="K1ZRSHbWOJf6z0FxV2P3-135" vertex="1">
          <mxGeometry y="66.14999961853027" width="138" height="29" as="geometry" />
        </mxCell>
        <mxCell id="K1ZRSHbWOJf6z0FxV2P3-139" value="+matchFace()" style="text;strokeColor=none;fillColor=none;align=left;verticalAlign=top;spacingLeft=4;spacingRight=4;overflow=hidden;rotatable=0;points=[[0,0.5],[1,0.5]];portConstraint=eastwest;" parent="K1ZRSHbWOJf6z0FxV2P3-135" vertex="1">
          <mxGeometry y="95.14999961853027" width="138" height="29" as="geometry" />
        </mxCell>
        <mxCell id="K1ZRSHbWOJf6z0FxV2P3-140" value="SpeechToText" style="swimlane;fontStyle=1;align=center;verticalAlign=top;childLayout=stackLayout;horizontal=1;startSize=29.149999618530273;horizontalStack=0;resizeParent=1;resizeParentMax=0;resizeLast=0;collapsible=0;marginBottom=0;" parent="1" vertex="1">
          <mxGeometry x="41" y="611" width="178" height="124.14999961853027" as="geometry" />
        </mxCell>
        <mxCell id="K1ZRSHbWOJf6z0FxV2P3-141" value="+String voiceCommand" style="text;strokeColor=none;fillColor=none;align=left;verticalAlign=top;spacingLeft=4;spacingRight=4;overflow=hidden;rotatable=0;points=[[0,0.5],[1,0.5]];portConstraint=eastwest;" parent="K1ZRSHbWOJf6z0FxV2P3-140" vertex="1">
          <mxGeometry y="29.149999618530273" width="178" height="29" as="geometry" />
        </mxCell>
        <mxCell id="K1ZRSHbWOJf6z0FxV2P3-142" style="line;strokeWidth=1;fillColor=none;align=left;verticalAlign=middle;spacingTop=-1;spacingLeft=3;spacingRight=3;rotatable=0;labelPosition=right;points=[];portConstraint=eastwest;strokeColor=inherit;" parent="K1ZRSHbWOJf6z0FxV2P3-140" vertex="1">
          <mxGeometry y="58.14999961853027" width="178" height="8" as="geometry" />
        </mxCell>
        <mxCell id="K1ZRSHbWOJf6z0FxV2P3-143" value="+convertToText()" style="text;strokeColor=none;fillColor=none;align=left;verticalAlign=top;spacingLeft=4;spacingRight=4;overflow=hidden;rotatable=0;points=[[0,0.5],[1,0.5]];portConstraint=eastwest;" parent="K1ZRSHbWOJf6z0FxV2P3-140" vertex="1">
          <mxGeometry y="66.14999961853027" width="178" height="29" as="geometry" />
        </mxCell>
        <mxCell id="K1ZRSHbWOJf6z0FxV2P3-144" value="+parseCommand()" style="text;strokeColor=none;fillColor=none;align=left;verticalAlign=top;spacingLeft=4;spacingRight=4;overflow=hidden;rotatable=0;points=[[0,0.5],[1,0.5]];portConstraint=eastwest;" parent="K1ZRSHbWOJf6z0FxV2P3-140" vertex="1">
          <mxGeometry y="95.14999961853027" width="178" height="29" as="geometry" />
        </mxCell>
        <mxCell id="K1ZRSHbWOJf6z0FxV2P3-145" value="NaturalLanguageProcessing" style="swimlane;fontStyle=1;align=center;verticalAlign=top;childLayout=stackLayout;horizontal=1;startSize=29.149999618530273;horizontalStack=0;resizeParent=1;resizeParentMax=0;resizeLast=0;collapsible=0;marginBottom=0;" parent="1" vertex="1">
          <mxGeometry x="20" y="815" width="219" height="124.14999961853027" as="geometry" />
        </mxCell>
        <mxCell id="K1ZRSHbWOJf6z0FxV2P3-146" value="+String parsedText" style="text;strokeColor=none;fillColor=none;align=left;verticalAlign=top;spacingLeft=4;spacingRight=4;overflow=hidden;rotatable=0;points=[[0,0.5],[1,0.5]];portConstraint=eastwest;" parent="K1ZRSHbWOJf6z0FxV2P3-145" vertex="1">
          <mxGeometry y="29.149999618530273" width="219" height="29" as="geometry" />
        </mxCell>
        <mxCell id="K1ZRSHbWOJf6z0FxV2P3-147" style="line;strokeWidth=1;fillColor=none;align=left;verticalAlign=middle;spacingTop=-1;spacingLeft=3;spacingRight=3;rotatable=0;labelPosition=right;points=[];portConstraint=eastwest;strokeColor=inherit;" parent="K1ZRSHbWOJf6z0FxV2P3-145" vertex="1">
          <mxGeometry y="58.14999961853027" width="219" height="8" as="geometry" />
        </mxCell>
        <mxCell id="K1ZRSHbWOJf6z0FxV2P3-148" value="+interpretCommand()" style="text;strokeColor=none;fillColor=none;align=left;verticalAlign=top;spacingLeft=4;spacingRight=4;overflow=hidden;rotatable=0;points=[[0,0.5],[1,0.5]];portConstraint=eastwest;" parent="K1ZRSHbWOJf6z0FxV2P3-145" vertex="1">
          <mxGeometry y="66.14999961853027" width="219" height="29" as="geometry" />
        </mxCell>
        <mxCell id="K1ZRSHbWOJf6z0FxV2P3-149" value="+mapCommandToAction()" style="text;strokeColor=none;fillColor=none;align=left;verticalAlign=top;spacingLeft=4;spacingRight=4;overflow=hidden;rotatable=0;points=[[0,0.5],[1,0.5]];portConstraint=eastwest;" parent="K1ZRSHbWOJf6z0FxV2P3-145" vertex="1">
          <mxGeometry y="95.14999961853027" width="219" height="29" as="geometry" />
        </mxCell>
        <mxCell id="K1ZRSHbWOJf6z0FxV2P3-150" value="EmailSystem" style="swimlane;fontStyle=1;align=center;verticalAlign=top;childLayout=stackLayout;horizontal=1;startSize=26.899998982747395;horizontalStack=0;resizeParent=1;resizeParentMax=0;resizeLast=0;collapsible=0;marginBottom=0;" parent="1" vertex="1">
          <mxGeometry x="61" y="1019" width="137" height="169.89999898274738" as="geometry" />
        </mxCell>
        <mxCell id="K1ZRSHbWOJf6z0FxV2P3-151" value="+String action" style="text;strokeColor=none;fillColor=none;align=left;verticalAlign=top;spacingLeft=4;spacingRight=4;overflow=hidden;rotatable=0;points=[[0,0.5],[1,0.5]];portConstraint=eastwest;" parent="K1ZRSHbWOJf6z0FxV2P3-150" vertex="1">
          <mxGeometry y="26.899998982747395" width="137" height="27" as="geometry" />
        </mxCell>
        <mxCell id="K1ZRSHbWOJf6z0FxV2P3-152" style="line;strokeWidth=1;fillColor=none;align=left;verticalAlign=middle;spacingTop=-1;spacingLeft=3;spacingRight=3;rotatable=0;labelPosition=right;points=[];portConstraint=eastwest;strokeColor=inherit;" parent="K1ZRSHbWOJf6z0FxV2P3-150" vertex="1">
          <mxGeometry y="53.89999898274739" width="137" height="8" as="geometry" />
        </mxCell>
        <mxCell id="K1ZRSHbWOJf6z0FxV2P3-153" value="+composeEmail()" style="text;strokeColor=none;fillColor=none;align=left;verticalAlign=top;spacingLeft=4;spacingRight=4;overflow=hidden;rotatable=0;points=[[0,0.5],[1,0.5]];portConstraint=eastwest;" parent="K1ZRSHbWOJf6z0FxV2P3-150" vertex="1">
          <mxGeometry y="61.89999898274739" width="137" height="27" as="geometry" />
        </mxCell>
        <mxCell id="K1ZRSHbWOJf6z0FxV2P3-154" value="+sendEmail()" style="text;strokeColor=none;fillColor=none;align=left;verticalAlign=top;spacingLeft=4;spacingRight=4;overflow=hidden;rotatable=0;points=[[0,0.5],[1,0.5]];portConstraint=eastwest;" parent="K1ZRSHbWOJf6z0FxV2P3-150" vertex="1">
          <mxGeometry y="88.89999898274739" width="137" height="27" as="geometry" />
        </mxCell>
        <mxCell id="K1ZRSHbWOJf6z0FxV2P3-155" value="+readEmail()" style="text;strokeColor=none;fillColor=none;align=left;verticalAlign=top;spacingLeft=4;spacingRight=4;overflow=hidden;rotatable=0;points=[[0,0.5],[1,0.5]];portConstraint=eastwest;" parent="K1ZRSHbWOJf6z0FxV2P3-150" vertex="1">
          <mxGeometry y="115.89999898274739" width="137" height="27" as="geometry" />
        </mxCell>
        <mxCell id="K1ZRSHbWOJf6z0FxV2P3-156" value="+deleteEmail()" style="text;strokeColor=none;fillColor=none;align=left;verticalAlign=top;spacingLeft=4;spacingRight=4;overflow=hidden;rotatable=0;points=[[0,0.5],[1,0.5]];portConstraint=eastwest;" parent="K1ZRSHbWOJf6z0FxV2P3-150" vertex="1">
          <mxGeometry y="142.89999898274738" width="137" height="27" as="geometry" />
        </mxCell>
        <mxCell id="K1ZRSHbWOJf6z0FxV2P3-157" value="TextToSpeech" style="swimlane;fontStyle=1;align=center;verticalAlign=top;childLayout=stackLayout;horizontal=1;startSize=29.149999618530273;horizontalStack=0;resizeParent=1;resizeParentMax=0;resizeLast=0;collapsible=0;marginBottom=0;" parent="1" vertex="1">
          <mxGeometry x="650" y="1100" width="167" height="124.14999961853027" as="geometry" />
        </mxCell>
        <mxCell id="K1ZRSHbWOJf6z0FxV2P3-158" value="+String emailContent" style="text;strokeColor=none;fillColor=none;align=left;verticalAlign=top;spacingLeft=4;spacingRight=4;overflow=hidden;rotatable=0;points=[[0,0.5],[1,0.5]];portConstraint=eastwest;" parent="K1ZRSHbWOJf6z0FxV2P3-157" vertex="1">
          <mxGeometry y="29.149999618530273" width="167" height="29" as="geometry" />
        </mxCell>
        <mxCell id="K1ZRSHbWOJf6z0FxV2P3-159" style="line;strokeWidth=1;fillColor=none;align=left;verticalAlign=middle;spacingTop=-1;spacingLeft=3;spacingRight=3;rotatable=0;labelPosition=right;points=[];portConstraint=eastwest;strokeColor=inherit;" parent="K1ZRSHbWOJf6z0FxV2P3-157" vertex="1">
          <mxGeometry y="58.14999961853027" width="167" height="8" as="geometry" />
        </mxCell>
        <mxCell id="K1ZRSHbWOJf6z0FxV2P3-160" value="+convertToSpeech()" style="text;strokeColor=none;fillColor=none;align=left;verticalAlign=top;spacingLeft=4;spacingRight=4;overflow=hidden;rotatable=0;points=[[0,0.5],[1,0.5]];portConstraint=eastwest;" parent="K1ZRSHbWOJf6z0FxV2P3-157" vertex="1">
          <mxGeometry y="66.14999961853027" width="167" height="29" as="geometry" />
        </mxCell>
        <mxCell id="K1ZRSHbWOJf6z0FxV2P3-161" value="+speakOut()" style="text;strokeColor=none;fillColor=none;align=left;verticalAlign=top;spacingLeft=4;spacingRight=4;overflow=hidden;rotatable=0;points=[[0,0.5],[1,0.5]];portConstraint=eastwest;" parent="K1ZRSHbWOJf6z0FxV2P3-157" vertex="1">
          <mxGeometry y="95.14999961853027" width="167" height="29" as="geometry" />
        </mxCell>
        <mxCell id="K1ZRSHbWOJf6z0FxV2P3-162" value="DataStore" style="swimlane;fontStyle=1;align=center;verticalAlign=top;childLayout=stackLayout;horizontal=1;startSize=27.8;horizontalStack=0;resizeParent=1;resizeParentMax=0;resizeLast=0;collapsible=0;marginBottom=0;" parent="1" vertex="1">
          <mxGeometry x="289" y="804" width="209" height="147.8" as="geometry" />
        </mxCell>
        <mxCell id="K1ZRSHbWOJf6z0FxV2P3-163" value="+Image facialData" style="text;strokeColor=none;fillColor=none;align=left;verticalAlign=top;spacingLeft=4;spacingRight=4;overflow=hidden;rotatable=0;points=[[0,0.5],[1,0.5]];portConstraint=eastwest;" parent="K1ZRSHbWOJf6z0FxV2P3-162" vertex="1">
          <mxGeometry y="27.8" width="209" height="28" as="geometry" />
        </mxCell>
        <mxCell id="K1ZRSHbWOJf6z0FxV2P3-164" value="+String voiceCommandLogs" style="text;strokeColor=none;fillColor=none;align=left;verticalAlign=top;spacingLeft=4;spacingRight=4;overflow=hidden;rotatable=0;points=[[0,0.5],[1,0.5]];portConstraint=eastwest;" parent="K1ZRSHbWOJf6z0FxV2P3-162" vertex="1">
          <mxGeometry y="55.8" width="209" height="28" as="geometry" />
        </mxCell>
        <mxCell id="K1ZRSHbWOJf6z0FxV2P3-165" style="line;strokeWidth=1;fillColor=none;align=left;verticalAlign=middle;spacingTop=-1;spacingLeft=3;spacingRight=3;rotatable=0;labelPosition=right;points=[];portConstraint=eastwest;strokeColor=inherit;" parent="K1ZRSHbWOJf6z0FxV2P3-162" vertex="1">
          <mxGeometry y="83.8" width="209" height="8" as="geometry" />
        </mxCell>
        <mxCell id="K1ZRSHbWOJf6z0FxV2P3-166" value="+storeFacialData()" style="text;strokeColor=none;fillColor=none;align=left;verticalAlign=top;spacingLeft=4;spacingRight=4;overflow=hidden;rotatable=0;points=[[0,0.5],[1,0.5]];portConstraint=eastwest;" parent="K1ZRSHbWOJf6z0FxV2P3-162" vertex="1">
          <mxGeometry y="91.8" width="209" height="28" as="geometry" />
        </mxCell>
        <mxCell id="K1ZRSHbWOJf6z0FxV2P3-167" value="+storeVoiceCommands()" style="text;strokeColor=none;fillColor=none;align=left;verticalAlign=top;spacingLeft=4;spacingRight=4;overflow=hidden;rotatable=0;points=[[0,0.5],[1,0.5]];portConstraint=eastwest;" parent="K1ZRSHbWOJf6z0FxV2P3-162" vertex="1">
          <mxGeometry y="119.8" width="209" height="28" as="geometry" />
        </mxCell>
        <mxCell id="K1ZRSHbWOJf6z0FxV2P3-168" value="EmailServer" style="swimlane;fontStyle=1;align=center;verticalAlign=top;childLayout=stackLayout;horizontal=1;startSize=26.91428484235491;horizontalStack=0;resizeParent=1;resizeParentMax=0;resizeLast=0;collapsible=0;marginBottom=0;" parent="1" vertex="1">
          <mxGeometry x="43" y="1268" width="174" height="88.9142848423549" as="geometry" />
        </mxCell>
        <mxCell id="K1ZRSHbWOJf6z0FxV2P3-169" style="line;strokeWidth=1;fillColor=none;align=left;verticalAlign=middle;spacingTop=-1;spacingLeft=3;spacingRight=3;rotatable=0;labelPosition=right;points=[];portConstraint=eastwest;strokeColor=inherit;" parent="K1ZRSHbWOJf6z0FxV2P3-168" vertex="1">
          <mxGeometry y="26.91428484235491" width="174" height="8" as="geometry" />
        </mxCell>
        <mxCell id="K1ZRSHbWOJf6z0FxV2P3-170" value="+String sendEmail()" style="text;strokeColor=none;fillColor=none;align=left;verticalAlign=top;spacingLeft=4;spacingRight=4;overflow=hidden;rotatable=0;points=[[0,0.5],[1,0.5]];portConstraint=eastwest;" parent="K1ZRSHbWOJf6z0FxV2P3-168" vertex="1">
          <mxGeometry y="34.91428484235491" width="174" height="27" as="geometry" />
        </mxCell>
        <mxCell id="K1ZRSHbWOJf6z0FxV2P3-171" value="+String receiveEmail()" style="text;strokeColor=none;fillColor=none;align=left;verticalAlign=top;spacingLeft=4;spacingRight=4;overflow=hidden;rotatable=0;points=[[0,0.5],[1,0.5]];portConstraint=eastwest;" parent="K1ZRSHbWOJf6z0FxV2P3-168" vertex="1">
          <mxGeometry y="61.91428484235491" width="174" height="27" as="geometry" />
        </mxCell>
        <mxCell id="K1ZRSHbWOJf6z0FxV2P3-172" value="interacts with" style="curved=1;startArrow=none;endArrow=open;endSize=12;exitX=0.22;exitY=1;entryX=0.5;entryY=0;rounded=0;" parent="1" source="K1ZRSHbWOJf6z0FxV2P3-123" target="K1ZRSHbWOJf6z0FxV2P3-129" edge="1">
          <mxGeometry relative="1" as="geometry">
            <Array as="points">
              <mxPoint x="325" y="361" />
            </Array>
          </mxGeometry>
        </mxCell>
        <mxCell id="K1ZRSHbWOJf6z0FxV2P3-173" value="sends face data to" style="curved=1;startArrow=none;endArrow=open;endSize=12;exitX=0.74;exitY=1;entryX=0.5;entryY=0;rounded=0;" parent="1" source="K1ZRSHbWOJf6z0FxV2P3-129" target="K1ZRSHbWOJf6z0FxV2P3-135" edge="1">
          <mxGeometry relative="1" as="geometry">
            <Array as="points">
              <mxPoint x="394" y="577" />
            </Array>
          </mxGeometry>
        </mxCell>
        <mxCell id="K1ZRSHbWOJf6z0FxV2P3-174" value="sends voice command to" style="curved=1;startArrow=none;endArrow=open;endSize=12;exitX=0;exitY=0.88;entryX=0.5;entryY=0;rounded=0;" parent="1" source="K1ZRSHbWOJf6z0FxV2P3-129" target="K1ZRSHbWOJf6z0FxV2P3-140" edge="1">
          <mxGeometry relative="1" as="geometry">
            <Array as="points">
              <mxPoint x="130" y="577" />
            </Array>
          </mxGeometry>
        </mxCell>
        <mxCell id="K1ZRSHbWOJf6z0FxV2P3-175" value="stores facial data in" style="curved=1;startArrow=none;endArrow=open;endSize=12;exitX=0.5;exitY=1;entryX=0.5;entryY=0;rounded=0;" parent="1" source="K1ZRSHbWOJf6z0FxV2P3-135" target="K1ZRSHbWOJf6z0FxV2P3-162" edge="1">
          <mxGeometry relative="1" as="geometry">
            <Array as="points" />
          </mxGeometry>
        </mxCell>
        <mxCell id="K1ZRSHbWOJf6z0FxV2P3-176" value="sends parsed text to" style="curved=1;startArrow=none;endArrow=open;endSize=12;exitX=0.5;exitY=1;entryX=0.5;entryY=0;rounded=0;" parent="1" source="K1ZRSHbWOJf6z0FxV2P3-140" target="K1ZRSHbWOJf6z0FxV2P3-145" edge="1">
          <mxGeometry relative="1" as="geometry">
            <Array as="points" />
          </mxGeometry>
        </mxCell>
        <mxCell id="K1ZRSHbWOJf6z0FxV2P3-177" value="sends command to" style="curved=1;startArrow=none;endArrow=open;endSize=12;exitX=0.5;exitY=1;entryX=0.5;entryY=0;rounded=0;" parent="1" source="K1ZRSHbWOJf6z0FxV2P3-145" target="K1ZRSHbWOJf6z0FxV2P3-150" edge="1">
          <mxGeometry relative="1" as="geometry">
            <Array as="points" />
          </mxGeometry>
        </mxCell>
        <mxCell id="K1ZRSHbWOJf6z0FxV2P3-178" value="interacts with" style="curved=1;startArrow=none;endArrow=open;endSize=12;exitX=0.18;exitY=1;entryX=0.31;entryY=0;rounded=0;" parent="1" source="K1ZRSHbWOJf6z0FxV2P3-150" target="K1ZRSHbWOJf6z0FxV2P3-168" edge="1">
          <mxGeometry relative="1" as="geometry">
            <Array as="points">
              <mxPoint x="67" y="1223" />
            </Array>
          </mxGeometry>
        </mxCell>
        <mxCell id="K1ZRSHbWOJf6z0FxV2P3-179" value="sends email content to" style="curved=1;startArrow=none;endArrow=open;endSize=12;exitX=1;exitY=0.71;entryX=0;entryY=0.14;rounded=0;" parent="1" edge="1">
          <mxGeometry relative="1" as="geometry">
            <Array as="points">
              <mxPoint x="350" y="1152" />
            </Array>
            <mxPoint x="198" y="1152.2489992777505" as="sourcePoint" />
            <mxPoint x="650" y="1130.0009999465942" as="targetPoint" />
          </mxGeometry>
        </mxCell>
        <mxCell id="K1ZRSHbWOJf6z0FxV2P3-180" value="speaks email to" style="curved=1;startArrow=none;endArrow=open;endSize=12;exitX=0.5;exitY=0;entryX=1;entryY=0.96;rounded=0;" parent="1" source="K1ZRSHbWOJf6z0FxV2P3-157" target="K1ZRSHbWOJf6z0FxV2P3-123" edge="1">
          <mxGeometry relative="1" as="geometry">
            <Array as="points">
              <mxPoint x="541" y="361" />
            </Array>
          </mxGeometry>
        </mxCell>
        <mxCell id="K1ZRSHbWOJf6z0FxV2P3-181" value="provides emails" style="curved=1;startArrow=none;endArrow=open;endSize=12;exitX=0.69;exitY=0;entryX=0.83;entryY=1;rounded=0;" parent="1" source="K1ZRSHbWOJf6z0FxV2P3-168" target="K1ZRSHbWOJf6z0FxV2P3-150" edge="1">
          <mxGeometry relative="1" as="geometry">
            <Array as="points">
              <mxPoint x="193" y="1223" />
            </Array>
          </mxGeometry>
        </mxCell>
      </root>
    </mxGraphModel>
  </diagram>
</mxfile>
